# xmcd CD database file
#
# Track frame offsets:
#	150
#	20077
#	33781
#	58885
#	80325
#	98435
#	114670
#	130581
#	154055
#	184591
#
# Disc length: 3303 seconds
#
# Revision: 0
# Processed by: cddbd v1.5.2PL0 Copyright (c) Steve Scherf et al.
# Submitted via: CDex 1.70beta2
#
DISCID=730ce50a
DTITLE=福原まり - Pieta
DYEAR=2007
DGENRE=New Age
TTITLE0=pieta
TTITLE1=dancer
TTITLE2=幻想
TTITLE3=La Lune
TTITLE4=les pas d'amour
TTITLE5=baroque
TTITLE6=primavera
TTITLE7=pasear
TTITLE8=帰還
TTITLE9=PV
EXTD=YEAR: 2007
EXTT0=
EXTT1=
EXTT2=
EXTT3=
EXTT4=
EXTT5=
EXTT6=
EXTT7=
EXTT8=
EXTT9=
PLAYORDER=
